{
	"asset":{
		"generator":"Khronos glTF Blender I/O v3.6.27",
		"version":"2.0"
	},
	"extensionsUsed":[
		"KHR_materials_clearcoat",
		"KHR_materials_transmission",
		"KHR_materials_ior"
	],
	"scene":0,
	"scenes":[
		{
			"name":"Scene",
			"nodes":[
				0,
				1,
				2,
				3,
				4,
				5,
				6,
				7,
				8,
				9,
				10,
				11,
				12
			]
		}
	],
	"nodes":[
		{
			"mesh":0,
			"name":"gharniz",
			"scale":[
				0.30480000376701355,
				0.30480000376701355,
				0.30480000376701355
			]
		},
		{
			"mesh":1,
			"name":"Wood - TruStile - Doors - MDF",
			"scale":[
				0.30480000376701355,
				0.30480000376701355,
				0.30480000376701355
			],
			"translation":[
				2.3361573219299316,
				0,
				1.1658031940460205
			]
		},
		{
			"mesh":2,
			"name":"Default Floor",
			"scale":[
				0.30480000376701355,
				0.30480000376701355,
				0.30480000376701355
			]
		},
		{
			"mesh":3,
			"name":"Wood - Stained",
			"rotation":[
				0,
				0.07845909893512726,
				0,
				0.9969174265861511
			],
			"scale":[
				0.3048000633716583,
				0.30480000376701355,
				0.3048000633716583
			],
			"translation":[
				-1.4583053588867188,
				0.10000000149011612,
				6.3786725997924805
			]
		},
		{
			"mesh":4,
			"name":"Clad - White",
			"rotation":[
				0,
				0.07845909893512726,
				0,
				0.9969174265861511
			],
			"scale":[
				0.3048000633716583,
				0.30480000376701355,
				0.3048000633716583
			],
			"translation":[
				-1.4583053588867188,
				0.10000000149011612,
				6.3786725997924805
			]
		},
		{
			"mesh":5,
			"name":"Glass",
			"rotation":[
				0,
				1,
				0,
				7.549790836947068e-08
			],
			"scale":[
				0.30480000376701355,
				0.30480000376701355,
				0.30480000376701355
			],
			"translation":[
				0.7968723177909851,
				0,
				5.108240127563477
			]
		},
		{
			"mesh":6,
			"name":"Aluminum",
			"rotation":[
				0,
				1,
				0,
				7.549790836947068e-08
			],
			"scale":[
				0.30480000376701355,
				0.30480000376701355,
				0.30480000376701355
			],
			"translation":[
				0.7968723177909851,
				0,
				5.108240127563477
			]
		},
		{
			"mesh":7,
			"name":"Cherry",
			"rotation":[
				0,
				1,
				0,
				7.549790836947068e-08
			],
			"scale":[
				0.30480000376701355,
				0.30480000376701355,
				0.30480000376701355
			],
			"translation":[
				0.7968723177909851,
				0,
				5.108240127563477
			]
		},
		{
			"mesh":8,
			"name":"MineralWool_ALUPROF_Brown",
			"rotation":[
				0,
				1,
				0,
				7.549790836947068e-08
			],
			"scale":[
				0.30480000376701355,
				0.30480000376701355,
				0.30480000376701355
			],
			"translation":[
				-3.3649275302886963,
				0,
				-7.256001949310303
			]
		},
		{
			"mesh":9,
			"name":"StainlessSteel_ALUPROF_Grey",
			"rotation":[
				0,
				1,
				0,
				7.549790836947068e-08
			],
			"scale":[
				0.30480000376701355,
				0.30480000376701355,
				0.30480000376701355
			],
			"translation":[
				-3.3649275302886963,
				0,
				-7.256001949310303
			]
		},
		{
			"mesh":10,
			"name":"Aluminium_ALUPROF_RAL7016_AnthraciteGrey",
			"rotation":[
				0,
				1,
				0,
				7.549790836947068e-08
			],
			"scale":[
				0.30480000376701355,
				0.30480000376701355,
				0.30480000376701355
			],
			"translation":[
				-3.3649275302886963,
				0,
				-7.256001949310303
			]
		},
		{
			"mesh":11,
			"name":"Default Wall",
			"scale":[
				0.30480000376701355,
				0.30480000376701355,
				0.30480000376701355
			]
		},
		{
			"mesh":12,
			"name":"Gypsum Wall Board",
			"scale":[
				0.30480000376701355,
				0.30480000376701355,
				0.30480000376701355
			]
		}
	],
	"materials":[
		{
			"doubleSided":true,
			"name":"gharniz",
			"pbrMetallicRoughness":{
				"baseColorFactor":[
					0.800000011920929,
					0.800000011920929,
					0.800000011920929,
					1
				],
				"metallicFactor":0,
				"roughnessFactor":0.5
			}
		},
		{
			"doubleSided":true,
			"name":"Material.002",
			"pbrMetallicRoughness":{
				"baseColorFactor":[
					0.800000011920929,
					0.800000011920929,
					0.800000011920929,
					1
				],
				"metallicFactor":0,
				"roughnessFactor":0.5
			}
		},
		{
			"doubleSided":true,
			"name":"windows metal",
			"pbrMetallicRoughness":{
				"baseColorFactor":[
					0.800000011920929,
					0.800000011920929,
					0.800000011920929,
					1
				],
				"metallicFactor":0.47999998927116394,
				"roughnessFactor":0.5
			}
		},
		{
			"alphaMode":"BLEND",
			"doubleSided":true,
			"extensions":{
				"KHR_materials_clearcoat":{
					"clearcoatFactor":0.5163639783859253,
					"clearcoatRoughnessFactor":0.5463640093803406
				},
				"KHR_materials_transmission":{
					"transmissionFactor":1
				},
				"KHR_materials_ior":{
					"ior":1.4500000476837158
				}
			},
			"name":"windows glass",
			"pbrMetallicRoughness":{
				"baseColorFactor":[
					0.800000011920929,
					0.800000011920929,
					0.800000011920929,
					1
				],
				"metallicFactor":0,
				"roughnessFactor":0
			}
		},
		{
			"doubleSided":true,
			"name":"Door Handles",
			"pbrMetallicRoughness":{
				"baseColorFactor":[
					0.800000011920929,
					0.800000011920929,
					0.800000011920929,
					1
				],
				"metallicFactor":0.7599999904632568,
				"roughnessFactor":0.5
			}
		},
		{
			"doubleSided":true,
			"name":"Entrance Door",
			"pbrMetallicRoughness":{
				"baseColorFactor":[
					0.800000011920929,
					0.800000011920929,
					0.800000011920929,
					1
				],
				"metallicFactor":0,
				"roughnessFactor":0.5
			}
		},
		{
			"doubleSided":true,
			"name":"Material.003",
			"pbrMetallicRoughness":{
				"baseColorFactor":[
					0.800000011920929,
					0.800000011920929,
					0.800000011920929,
					1
				],
				"metallicFactor":0,
				"roughnessFactor":0.5
			}
		}
	],
	"meshes":[
		{
			"name":"Mesh",
			"primitives":[
				{
					"attributes":{
						"POSITION":0,
						"NORMAL":1,
						"TEXCOORD_0":2
					},
					"indices":3,
					"material":0
				}
			]
		},
		{
			"name":"Mesh.001",
			"primitives":[
				{
					"attributes":{
						"POSITION":4,
						"NORMAL":5,
						"TEXCOORD_0":6
					},
					"indices":7,
					"material":1
				}
			]
		},
		{
			"name":"Mesh.002",
			"primitives":[
				{
					"attributes":{
						"POSITION":8,
						"NORMAL":9,
						"TEXCOORD_0":10
					},
					"indices":11
				}
			]
		},
		{
			"name":"Mesh.003",
			"primitives":[
				{
					"attributes":{
						"POSITION":12,
						"NORMAL":13,
						"TEXCOORD_0":14
					},
					"indices":15,
					"material":2
				}
			]
		},
		{
			"name":"Mesh.004",
			"primitives":[
				{
					"attributes":{
						"POSITION":16,
						"NORMAL":17,
						"TEXCOORD_0":18
					},
					"indices":19
				}
			]
		},
		{
			"name":"Mesh.005",
			"primitives":[
				{
					"attributes":{
						"POSITION":20,
						"NORMAL":21,
						"TEXCOORD_0":22
					},
					"indices":23,
					"material":3
				}
			]
		},
		{
			"name":"Mesh.006",
			"primitives":[
				{
					"attributes":{
						"POSITION":24,
						"NORMAL":25,
						"TEXCOORD_0":26
					},
					"indices":27
				}
			]
		},
		{
			"name":"Mesh.007",
			"primitives":[
				{
					"attributes":{
						"POSITION":28,
						"NORMAL":29,
						"TEXCOORD_0":30
					},
					"indices":31
				}
			]
		},
		{
			"name":"Mesh.008",
			"primitives":[
				{
					"attributes":{
						"POSITION":32,
						"NORMAL":33,
						"TEXCOORD_0":34
					},
					"indices":35
				}
			]
		},
		{
			"name":"Mesh.009",
			"primitives":[
				{
					"attributes":{
						"POSITION":36,
						"NORMAL":37,
						"TEXCOORD_0":38
					},
					"indices":39,
					"material":4
				}
			]
		},
		{
			"name":"Mesh.010",
			"primitives":[
				{
					"attributes":{
						"POSITION":40,
						"NORMAL":41,
						"TEXCOORD_0":42
					},
					"indices":43,
					"material":5
				}
			]
		},
		{
			"name":"Mesh.011",
			"primitives":[
				{
					"attributes":{
						"POSITION":44,
						"NORMAL":45,
						"TEXCOORD_0":46
					},
					"indices":47
				}
			]
		},
		{
			"name":"Mesh.012",
			"primitives":[
				{
					"attributes":{
						"POSITION":48,
						"NORMAL":49,
						"TEXCOORD_0":50
					},
					"indices":51,
					"material":6
				}
			]
		}
	],
	"accessors":[
		{
			"bufferView":0,
			"componentType":5126,
			"count":6859,
			"max":[
				19.225631713867188,
				0.2296587973833084,
				22.880155563354492
			],
			"min":[
				-19.285160064697266,
				-1.1102230246251565e-16,
				-55.833370208740234
			],
			"type":"VEC3"
		},
		{
			"bufferView":1,
			"componentType":5126,
			"count":6859,
			"type":"VEC3"
		},
		{
			"bufferView":2,
			"componentType":5126,
			"count":6859,
			"type":"VEC2"
		},
		{
			"bufferView":3,
			"componentType":5123,
			"count":14331,
			"type":"SCALAR"
		},
		{
			"bufferView":4,
			"componentType":5126,
			"count":31186,
			"max":[
				4.3456196784973145,
				7,
				0.2867453992366791
			],
			"min":[
				-21.58689308166504,
				-2.6645352591003757e-15,
				-45.50376892089844
			],
			"type":"VEC3"
		},
		{
			"bufferView":5,
			"componentType":5126,
			"count":31186,
			"type":"VEC3"
		},
		{
			"bufferView":6,
			"componentType":5126,
			"count":31186,
			"type":"VEC2"
		},
		{
			"bufferView":7,
			"componentType":5123,
			"count":80934,
			"type":"SCALAR"
		},
		{
			"bufferView":8,
			"componentType":5126,
			"count":144,
			"max":[
				19.881799697875977,
				0,
				23.64842987060547
			],
			"min":[
				-19.941364288330078,
				-0.4921259880065918,
				-56.69103240966797
			],
			"type":"VEC3"
		},
		{
			"bufferView":9,
			"componentType":5126,
			"count":144,
			"type":"VEC3"
		},
		{
			"bufferView":10,
			"componentType":5126,
			"count":144,
			"type":"VEC2"
		},
		{
			"bufferView":11,
			"componentType":5123,
			"count":288,
			"type":"SCALAR"
		},
		{
			"bufferView":12,
			"componentType":5126,
			"count":3168,
			"max":[
				34.23003005981445,
				9.013423919677734,
				0.42651060223579407
			],
			"min":[
				-3.9159650802612305,
				2.469481945037842,
				-72.6563949584961
			],
			"type":"VEC3"
		},
		{
			"bufferView":13,
			"componentType":5126,
			"count":3168,
			"type":"VEC3"
		},
		{
			"bufferView":14,
			"componentType":5126,
			"count":3168,
			"type":"VEC2"
		},
		{
			"bufferView":15,
			"componentType":5123,
			"count":5952,
			"type":"SCALAR"
		},
		{
			"bufferView":16,
			"componentType":5126,
			"count":2928,
			"max":[
				34.39674758911133,
				9.05509090423584,
				-0.22391732037067413
			],
			"min":[
				-4.015007972717285,
				2.3607802391052246,
				-71.98858642578125
			],
			"type":"VEC3"
		},
		{
			"bufferView":17,
			"componentType":5126,
			"count":2928,
			"type":"VEC3"
		},
		{
			"bufferView":18,
			"componentType":5126,
			"count":2928,
			"type":"VEC2"
		},
		{
			"bufferView":19,
			"componentType":5123,
			"count":5280,
			"type":"SCALAR"
		},
		{
			"bufferView":20,
			"componentType":5126,
			"count":816,
			"max":[
				12.916667938232422,
				8.957184791564941,
				72.17835235595703
			],
			"min":[
				-15.124990463256836,
				0.7604166865348816,
				-4.383158206939697
			],
			"type":"VEC3"
		},
		{
			"bufferView":21,
			"componentType":5126,
			"count":816,
			"type":"VEC3"
		},
		{
			"bufferView":22,
			"componentType":5126,
			"count":816,
			"type":"VEC2"
		},
		{
			"bufferView":23,
			"componentType":5123,
			"count":1224,
			"type":"SCALAR"
		},
		{
			"bufferView":24,
			"componentType":5126,
			"count":2200,
			"max":[
				10.514847755432129,
				3.0984251499176025,
				35.33333206176758
			],
			"min":[
				-1.2234251499176025,
				2.9015748500823975,
				0.02263779565691948
			],
			"type":"VEC3"
		},
		{
			"bufferView":25,
			"componentType":5126,
			"count":2200,
			"type":"VEC3"
		},
		{
			"bufferView":26,
			"componentType":5126,
			"count":2200,
			"type":"VEC2"
		},
		{
			"bufferView":27,
			"componentType":5123,
			"count":3384,
			"type":"SCALAR"
		},
		{
			"bufferView":28,
			"componentType":5126,
			"count":1328,
			"max":[
				10.93848705291748,
				6.895833492279053,
				35.67240524291992
			],
			"min":[
				-1.5625,
				-3.197442310920451e-14,
				-0.40100064873695374
			],
			"type":"VEC3"
		},
		{
			"bufferView":29,
			"componentType":5126,
			"count":1328,
			"type":"VEC3"
		},
		{
			"bufferView":30,
			"componentType":5126,
			"count":1328,
			"type":"VEC2"
		},
		{
			"bufferView":31,
			"componentType":5123,
			"count":2316,
			"type":"SCALAR"
		},
		{
			"bufferView":32,
			"componentType":5126,
			"count":96,
			"max":[
				1.864173173904419,
				7.232611656188965,
				-0.009842519648373127
			],
			"min":[
				-2.2455694675445557,
				-1.3234889800848443e-23,
				-8.846271514892578
			],
			"type":"VEC3"
		},
		{
			"bufferView":33,
			"componentType":5126,
			"count":96,
			"type":"VEC3"
		},
		{
			"bufferView":34,
			"componentType":5126,
			"count":96,
			"type":"VEC2"
		},
		{
			"bufferView":35,
			"componentType":5123,
			"count":168,
			"type":"SCALAR"
		},
		{
			"bufferView":36,
			"componentType":5126,
			"count":4865,
			"max":[
				-1.1354986429214478,
				3.743438243865967,
				0.21489500999450684
			],
			"min":[
				-1.943404197692871,
				2.9461941719055176,
				-9.071009635925293
			],
			"type":"VEC3"
		},
		{
			"bufferView":37,
			"componentType":5126,
			"count":4865,
			"type":"VEC3"
		},
		{
			"bufferView":38,
			"componentType":5126,
			"count":4865,
			"type":"VEC2"
		},
		{
			"bufferView":39,
			"componentType":5123,
			"count":7344,
			"type":"SCALAR"
		},
		{
			"bufferView":40,
			"componentType":5126,
			"count":1200,
			"max":[
				1.8149605989456177,
				7.183398723602295,
				-0.009842519648373127
			],
			"min":[
				-2.196356773376465,
				-0.09842519462108612,
				-8.846271514892578
			],
			"type":"VEC3"
		},
		{
			"bufferView":41,
			"componentType":5126,
			"count":1200,
			"type":"VEC3"
		},
		{
			"bufferView":42,
			"componentType":5126,
			"count":1200,
			"type":"VEC2"
		},
		{
			"bufferView":43,
			"componentType":5123,
			"count":2376,
			"type":"SCALAR"
		},
		{
			"bufferView":44,
			"componentType":5126,
			"count":1264,
			"max":[
				19.881799697875977,
				10.498687744140625,
				23.64842987060547
			],
			"min":[
				-19.941364288330078,
				-2.6469779601696886e-23,
				-56.69103240966797
			],
			"type":"VEC3"
		},
		{
			"bufferView":45,
			"componentType":5126,
			"count":1264,
			"type":"VEC3"
		},
		{
			"bufferView":46,
			"componentType":5126,
			"count":1264,
			"type":"VEC2"
		},
		{
			"bufferView":47,
			"componentType":5123,
			"count":2262,
			"type":"SCALAR"
		},
		{
			"bufferView":48,
			"componentType":5126,
			"count":896,
			"max":[
				19.881799697875977,
				10.498687744140625,
				23.64842987060547
			],
			"min":[
				-19.941364288330078,
				-2.6469779601696886e-23,
				-56.69103240966797
			],
			"type":"VEC3"
		},
		{
			"bufferView":49,
			"componentType":5126,
			"count":896,
			"type":"VEC3"
		},
		{
			"bufferView":50,
			"componentType":5126,
			"count":896,
			"type":"VEC2"
		},
		{
			"bufferView":51,
			"componentType":5123,
			"count":2070,
			"type":"SCALAR"
		}
	],
	"bufferViews":[
		{
			"buffer":0,
			"byteLength":82308,
			"byteOffset":0,
			"target":34962
		},
		{
			"buffer":0,
			"byteLength":82308,
			"byteOffset":82308,
			"target":34962
		},
		{
			"buffer":0,
			"byteLength":54872,
			"byteOffset":164616,
			"target":34962
		},
		{
			"buffer":0,
			"byteLength":28662,
			"byteOffset":219488,
			"target":34963
		},
		{
			"buffer":0,
			"byteLength":374232,
			"byteOffset":248152,
			"target":34962
		},
		{
			"buffer":0,
			"byteLength":374232,
			"byteOffset":622384,
			"target":34962
		},
		{
			"buffer":0,
			"byteLength":249488,
			"byteOffset":996616,
			"target":34962
		},
		{
			"buffer":0,
			"byteLength":161868,
			"byteOffset":1246104,
			"target":34963
		},
		{
			"buffer":0,
			"byteLength":1728,
			"byteOffset":1407972,
			"target":34962
		},
		{
			"buffer":0,
			"byteLength":1728,
			"byteOffset":1409700,
			"target":34962
		},
		{
			"buffer":0,
			"byteLength":1152,
			"byteOffset":1411428,
			"target":34962
		},
		{
			"buffer":0,
			"byteLength":576,
			"byteOffset":1412580,
			"target":34963
		},
		{
			"buffer":0,
			"byteLength":38016,
			"byteOffset":1413156,
			"target":34962
		},
		{
			"buffer":0,
			"byteLength":38016,
			"byteOffset":1451172,
			"target":34962
		},
		{
			"buffer":0,
			"byteLength":25344,
			"byteOffset":1489188,
			"target":34962
		},
		{
			"buffer":0,
			"byteLength":11904,
			"byteOffset":1514532,
			"target":34963
		},
		{
			"buffer":0,
			"byteLength":35136,
			"byteOffset":1526436,
			"target":34962
		},
		{
			"buffer":0,
			"byteLength":35136,
			"byteOffset":1561572,
			"target":34962
		},
		{
			"buffer":0,
			"byteLength":23424,
			"byteOffset":1596708,
			"target":34962
		},
		{
			"buffer":0,
			"byteLength":10560,
			"byteOffset":1620132,
			"target":34963
		},
		{
			"buffer":0,
			"byteLength":9792,
			"byteOffset":1630692,
			"target":34962
		},
		{
			"buffer":0,
			"byteLength":9792,
			"byteOffset":1640484,
			"target":34962
		},
		{
			"buffer":0,
			"byteLength":6528,
			"byteOffset":1650276,
			"target":34962
		},
		{
			"buffer":0,
			"byteLength":2448,
			"byteOffset":1656804,
			"target":34963
		},
		{
			"buffer":0,
			"byteLength":26400,
			"byteOffset":1659252,
			"target":34962
		},
		{
			"buffer":0,
			"byteLength":26400,
			"byteOffset":1685652,
			"target":34962
		},
		{
			"buffer":0,
			"byteLength":17600,
			"byteOffset":1712052,
			"target":34962
		},
		{
			"buffer":0,
			"byteLength":6768,
			"byteOffset":1729652,
			"target":34963
		},
		{
			"buffer":0,
			"byteLength":15936,
			"byteOffset":1736420,
			"target":34962
		},
		{
			"buffer":0,
			"byteLength":15936,
			"byteOffset":1752356,
			"target":34962
		},
		{
			"buffer":0,
			"byteLength":10624,
			"byteOffset":1768292,
			"target":34962
		},
		{
			"buffer":0,
			"byteLength":4632,
			"byteOffset":1778916,
			"target":34963
		},
		{
			"buffer":0,
			"byteLength":1152,
			"byteOffset":1783548,
			"target":34962
		},
		{
			"buffer":0,
			"byteLength":1152,
			"byteOffset":1784700,
			"target":34962
		},
		{
			"buffer":0,
			"byteLength":768,
			"byteOffset":1785852,
			"target":34962
		},
		{
			"buffer":0,
			"byteLength":336,
			"byteOffset":1786620,
			"target":34963
		},
		{
			"buffer":0,
			"byteLength":58380,
			"byteOffset":1786956,
			"target":34962
		},
		{
			"buffer":0,
			"byteLength":58380,
			"byteOffset":1845336,
			"target":34962
		},
		{
			"buffer":0,
			"byteLength":38920,
			"byteOffset":1903716,
			"target":34962
		},
		{
			"buffer":0,
			"byteLength":14688,
			"byteOffset":1942636,
			"target":34963
		},
		{
			"buffer":0,
			"byteLength":14400,
			"byteOffset":1957324,
			"target":34962
		},
		{
			"buffer":0,
			"byteLength":14400,
			"byteOffset":1971724,
			"target":34962
		},
		{
			"buffer":0,
			"byteLength":9600,
			"byteOffset":1986124,
			"target":34962
		},
		{
			"buffer":0,
			"byteLength":4752,
			"byteOffset":1995724,
			"target":34963
		},
		{
			"buffer":0,
			"byteLength":15168,
			"byteOffset":2000476,
			"target":34962
		},
		{
			"buffer":0,
			"byteLength":15168,
			"byteOffset":2015644,
			"target":34962
		},
		{
			"buffer":0,
			"byteLength":10112,
			"byteOffset":2030812,
			"target":34962
		},
		{
			"buffer":0,
			"byteLength":4524,
			"byteOffset":2040924,
			"target":34963
		},
		{
			"buffer":0,
			"byteLength":10752,
			"byteOffset":2045448,
			"target":34962
		},
		{
			"buffer":0,
			"byteLength":10752,
			"byteOffset":2056200,
			"target":34962
		},
		{
			"buffer":0,
			"byteLength":7168,
			"byteOffset":2066952,
			"target":34962
		},
		{
			"buffer":0,
			"byteLength":4140,
			"byteOffset":2074120,
			"target":34963
		}
	],
	"buffers":[
		{
			"byteLength":2078260,
			"uri":"data:application/octet-stream;base64,"
		}
	]
}
